<?xml version="1.0" standalone="no"?><!DOCTYPE svg PUBLIC "-//W3C//DTD SVG 1.1//EN" "http://www.w3.org/Graphics/SVG/1.1/DTD/svg11.dtd"><svg t="1700204275149" class="icon" viewBox="0 0 1027 1024" version="1.1" xmlns="http://www.w3.org/2000/svg" p-id="4707" xmlns:xlink="http://www.w3.org/1999/xlink" width="200.5859375" height="200"><path d="M20.672 180.672c-27.104 27.136-21.312 65.344 0.256 86.88 0.864 0.832 87.488 83.584 209.312 205.408a15.936 15.936 0 0 0 22.656 0 16 16 0 0 0 0-22.624c-18.368-18.368-35.84-35.744-52.416-52.192l50.848-50.848a16 16 0 0 0-22.624-22.624l-50.976 50.976a15940.8 15940.8 0 0 0-74.08-72.672l115.68-115.68a16 16 0 0 0-22.624-22.624L80.672 280.704c-23.552-22.816-37.12-35.776-37.344-36-6.752-6.752-15.616-25.76 0-41.376l160-160c6.176-6.272 22.624-18.72 40.672-0.768 0.8 0.896 81.6 92.672 204.928 216a16 16 0 0 0 22.624-22.624C348.992 113.408 268.8 22.336 267.328 20.672c-29.824-29.76-65.792-20.832-86.624 0l-160.032 160zM699.328 772.672a16 16 0 0 0-22.624 0l-50.912 50.88a11207.04 11207.04 0 0 0-48.96-49.312 16 16 0 0 0-22.624 22.624 9458.88 9458.88 0 0 1 202.496 208.288c10.976 11.008 26.016 17.056 42.336 17.056 16.8 0 33.792-6.56 44.32-17.12l159.936-161.824c20.128-20.128 21.28-54.272 2.496-73.12l-214.592-214.56a16 16 0 0 0-22.624 22.624l214.592 214.56c6.4 6.4 5.184 20.224-2.528 27.936l-159.968 161.824c-3.68 3.712-12.032 7.68-21.632 7.68-5.504 0-13.376-1.344-19.328-7.328-0.32-0.352-13.728-14.656-36.992-39.008l116.608-116.608a16 16 0 0 0-22.624-22.624l-116.128 116.128a10515.808 10515.808 0 0 0-72.32-74.432l51.072-51.072a16 16 0 0 0 0-22.592zM4.544 1018.528a16 16 0 0 0 16.032 4.128l320-95.328a15.68 15.68 0 0 0 6.784-4.064l546.88-550.56c0.768-0.768 1.152-1.76 1.728-2.624l116.992-116.992a49.664 49.664 0 0 0 0-70.496L845.44 15.104c-18.816-18.816-51.68-18.816-70.496 0l-119.648 119.648c-0.768 0.768-1.184 1.76-1.76 2.656L105.824 685.152a15.84 15.84 0 0 0-3.904 6.368l-101.12 310.88a15.968 15.968 0 0 0 3.744 16.128zM667.52 168.672l33.248 33.248L204.032 700l-55.264-12.544L667.52 168.672zM224 725.312L723.424 224.576l77.952 77.952L297.44 800H224v-74.688z m636.288-363.84L340.48 884.8l-18.464-64.064L824 325.152l36.288 36.32zM127.776 715.488L192 730.08V816a16 16 0 0 0 16 16h83.968l20.288 70.4-271.616 80.928 87.136-267.84z m669.824-677.76a18.24 18.24 0 0 1 25.248 0l167.52 167.52a17.728 17.728 0 0 1-0.032 25.248l-107.872 107.904-192.736-192.736 107.872-107.936z" fill="#828282" p-id="4708"></path></svg>